Patient4_TMGait_0pt6_01_right_39_EMG.mot
version=1
nRows=33
nColumns=33
inDegrees=no
endheader
time	1LAddLong	2LGlutMax	3LGlutMed	4LIliopsoas	5LSemiMemb	6LBicFemLong	7LRecFem	8LVastMed	9LVastLat	10LGasMed	11LTibAnt	12lTibPost	13LPeroneusLong	14LSol	15LExtDigLong	16LFlexDigLong	17RAddLong	18RGlutMax	19RGlutMed	20RIliopsoas	21RSemiMemb	22RBicFemLong	23RRecFem	24RVastMed	25RVastLat	26RGasMed	27RTibAnt	28RTibPost	29RPeroneusLong	30RSol	31RExtDigLong	32RFlexDigLong
47.74	-0.017242	0.21378	0.063019	-0.018311	0.047455	0.18066	0.007019	0.005798	-0.13611	0.002747	0.10696	0.006104	0.25696	0.070801	0.25391	0.029907	-0.005798	-0.27023	0.062103	0.079041	0.15015	-0.075989	-0.25818	-0.09491	-0.012817	0.009613	-0.050659	-0.001526	-0.23392	-0.002747	-0.002289	0.014343
47.741	-0.046082	0.17456	0.10239	-0.000916	-0.005798	0.6633	0.010986	0.00061	-0.053406	-0.01709	0.071869	0.007935	0.1062	0.066223	0.31342	0.012817	-0.028839	-0.27527	-0.041199	0.17929	0.024261	-0.083466	-0.29511	-0.059814	0.001984	-0.001984	-0.39475	-0.006256	-0.18784	0.08194	-0.003815	0.014343
47.742	-0.055847	0.21591	0.014191	-0.021667	-0.046539	0.96268	0.046844	0.00885	0.036316	0.001373	-0.020294	0.004272	-0.014496	0.10574	0.40359	0.003815	-0.0383	-0.21454	-0.12344	0.16235	0.12985	-0.049286	-0.23789	-0.009003	0.020294	-0.015717	-0.16983	-0.002747	-1.5143	0.16739	-0.000153	0.008698
47.743	-0.04303	0.1828	-0.042114	-0.004578	-0.052338	0.71274	0.03067	-0.032501	0.098724	0.015259	-0.084839	0.010681	-0.11108	0.14786	0.34531	0.009613	-0.018158	-0.24536	0.023193	0.092926	0.17975	0.005188	-0.27969	0.016479	0.046539	-0.002899	-0.067444	-0.001984	-0.67474	0.17242	-0.002441	0.009308
47.744	-0.039063	0.17548	-0.10742	-0.021667	-0.060272	0.64209	-0.007629	0.004578	0.10346	0.014343	-0.093231	0.002289	-0.00061	0.11429	-0.009918	0.003052	0.015411	-0.26398	-0.23865	0.049896	0.19928	0.079498	-0.25452	0.011139	0.039978	0.004425	0.089111	-0.002594	1.2936	0.059509	-0.003815	0.006409
47.745	-0.024719	0.16022	-0.19745	-0.014343	-0.075073	0.87326	0.001526	-0.001373	0.057678	0.007477	-0.021362	0.004272	0.1619	-0.007782	-0.064087	0.010529	0.044556	-0.3035	-0.22293	0.063477	0.17853	0.058441	-0.26169	0.007019	0.00824	0.011139	0.044403	-0.002594	1.3312	0.11917	-0.00412	0.001373
47.746	-0.010376	0.11429	-0.15808	-0.021057	-0.10025	1.1819	0.065765	-0.01358	0.047302	0.003204	0.031433	0.005493	0.13947	0.02243	-0.060272	0.015717	0.047607	-0.34042	0.12344	0.089569	0.13855	0.10788	-0.24017	-0.025787	0.00946	0.004883	-0.11017	-0.002136	0.25589	0.1416	-0.003052	-0.001068
47.747	-0.019379	0.13443	-0.14084	0.006409	-0.083771	1.006	0.12222	-0.0177	0.034485	-0.029449	0.049286	0.002289	0.12863	-0.010834	0.20996	0.014648	0.029755	-0.28336	0.089111	0.071716	0.11993	0.15259	-0.23422	-0.020294	0.012817	0.003967	-0.1831	-0.003204	-0.071716	0.033264	-0.006561	0.018463
47.748	-0.029297	0.12756	0.033264	0.029297	-0.080109	0.80948	0.095673	0.001221	-0.032349	-0.037537	0.041504	0.004425	0.062408	-0.049286	0.10346	0.001831	0.049438	-0.28412	0.048676	0.014343	0.12726	0.1384	-0.24506	-0.037842	0.036621	-0.001526	-0.37079	-0.001221	-0.15289	0.010834	-0.00473	-0.010376
47.749	-0.020294	0.12192	0.13962	0.007629	-0.073853	-0.23102	0.012512	0.020905	-0.070343	-0.018005	0.12375	0.005646	-0.070496	-0.030212	0.13809	0.023956	0.047913	-0.22018	-0.008087	0.003052	0.14908	0.097809	-0.24902	-0.035095	0.014954	-0.007629	-0.19501	-0.001373	0.28717	-0.018005	-0.00885	-0.010986
47.75	-0.002594	0.11627	0.10864	-0.010071	0.13153	-1.3701	-0.040283	0.037537	0.013123	0.016479	0.085297	-0.000153	-0.16251	-0.096893	-0.026245	0.006104	0.022278	-0.24628	0.039825	-0.075226	0.24002	-0.036011	-0.24017	-0.015564	0.044708	-0.003815	-0.16968	0.000458	0.35492	0.023041	-0.006104	-0.002594
47.751	0.015869	0.13275	0.007782	0.019684	0.23941	-1.2404	-0.084076	0.036926	0.15579	0.042114	-0.11459	0.000305	-0.15503	0.001221	-0.26627	0.00473	-0.001831	-0.28961	0.008087	-0.065613	0.24826	-0.20309	-0.23727	-0.002747	0.069427	-0.00061	-0.3038	-0.000153	0.19669	0.035706	-0.00412	0.004425
47.752	0.024261	0.14816	-0.083313	0.014343	0.14191	-0.63065	-0.061188	0.048981	0.35843	0.054779	-0.16037	0.011139	-0.06485	0.048065	-0.18692	-0.011597	0.022736	-0.23056	-0.10605	-0.091095	0.17258	-0.2211	-0.2742	0.00351	0.08728	-0.008698	-0.071106	0.001526	-0.17502	0.025482	-0.004272	-0.00412
47.753	0.017548	0.12268	-0.058441	0.001068	0.076599	-0.48126	-0.063324	0.055389	0.41031	0.058441	-0.14114	0.000763	-0.11749	0.1358	0.16251	-0.006256	-0.00824	-0.36087	-0.103	-0.11429	0.2298	-0.065918	-0.31525	0.11002	0.10727	-0.010834	0.044861	0.000305	0.015564	0.001526	-0.00885	-0.004425
47.754	0.017548	0.079193	-0.05249	0.020905	0.052338	-0.75638	-0.1889	0.05127	0.35889	0.029449	-0.04303	0.006714	0.11902	0.15106	0.50995	0.002136	0.040436	-0.30121	-0.048676	-0.11597	0.28091	0.11658	-0.22476	0.065155	0.082855	-0.004883	0.17685	-0.001984	0.079956	0.005035	-0.003967	-0.004425
47.755	0.030975	0.090485	0.10803	0.029144	0.036316	-0.51056	-0.22034	0.019989	0.21668	0.016327	0.22156	0.00885	0.26093	0.18341	0.13596	0.009766	0.027618	-0.21881	-0.005951	-0.077515	0.2803	0.26932	-0.19348	0.036926	0.062561	-0.006409	0.25406	-0.003357	0.04303	0.034943	-0.002747	0.003357
47.756	0.021667	-0.023499	0.18723	0.014038	0.04715	-0.2179	-0.14511	-0.015106	0.043182	-0.019531	0.66483	0.009308	0.30426	0.28473	0.87219	0	-0.006714	-0.18982	0.080719	-0.040741	0.2153	0.34836	-0.17914	0.000305	0.032501	-0.014191	0.43594	-0.00351	-0.20935	0.10056	-0.005188	-0.010071
47.757	0.013885	0.031738	0.25482	0.000305	0.02533	-0.1564	0.015411	-0.009308	-0.12299	-0.051575	0.59326	0.010376	0.13641	0.2742	0.31372	0.001068	-0.006866	-0.14496	0.064392	0.13168	0.22903	0.20371	-0.17716	-0.081482	0.063782	-0.00946	0.45425	-0.001831	-0.29312	0.057678	-0.004272	-0.009918
47.758	-0.000458	0.029602	0.30334	0.013733	0.009766	-0.036163	0.13718	-0.007172	-0.095978	-0.054474	-0.1207	0.005341	-0.020599	0.11719	0.26077	0.010986	-0.017395	-0.18387	-0.015717	0.23086	0.29007	0.18112	-0.1799	0.007324	0.054016	0.000153	0.16357	0.000458	-0.3305	-0.037689	-0.002289	0.002441
47.759	-0.009918	-0.024261	0.14984	0.028687	0.062408	0.0914	0.15656	-0.032196	-0.2092	-0.005188	-0.47028	0.005341	-0.3363	-0.006409	-0.17075	0.019989	-0.016327	-0.23346	0.085602	0.18143	0.30899	0.29953	-0.16419	0.009155	0.033112	0.001984	-0.33661	0.002289	-0.19287	-0.10452	-0.005493	-0.001831
47.76	-0.018311	-0.11902	0.045166	0.001984	-0.011139	0.011444	0.121	-0.034332	-0.3212	0.00885	-0.35324	0.006866	-0.33752	0.024414	-0.61066	0.010681	0.001984	-0.19486	0.028992	0.057831	0.31006	0.36896	-0.15915	0.049591	0.017853	0.010223	-0.57602	0.003967	0.028839	-0.25406	-0.001678	-0.011292
47.761	-0.009003	-0.16419	-0.08728	-0.015564	-0.059052	0.26321	0.1268	-0.038452	-0.43945	-0.023499	-0.33478	0.001984	-0.11032	-0.016479	-0.59525	0.002441	0.0354	-0.18646	0.019989	-0.06073	0.19821	0.34759	-0.14114	0.040894	-0.01709	0.022278	-0.045624	0.004425	-0.035248	-0.28046	-0.002899	-0.007019
47.762	0.014801	-0.32593	-0.2449	-0.004883	0.034027	0.33173	0.073547	-0.030823	-0.40909	-0.024872	-0.27802	0.005493	0.18341	-0.13916	-0.6424	0.005493	0.042267	-0.22278	0.021362	-0.090637	0.084686	0.36667	-0.17838	-0.009308	-0.008545	0.021362	-0.32028	0.001068	0.10284	-0.21988	-0.008392	-0.012512
47.763	0.031586	-0.40604	-0.21774	-0.015869	0.15411	0.33798	-0.10376	-0.024872	-0.14465	-0.016632	-0.16907	-0.000305	0.032501	-0.10788	-0.60562	0.008087	0.019836	-0.19684	-0.021515	-0.041809	0.13351	0.2478	-0.16998	-0.003357	-0.040741	0.009613	0.12573	0.000763	0.168	-0.15732	-0.004578	-0.011139
47.764	0.026093	-0.37308	-0.32211	-0.005798	0.098877	0.059814	-0.11887	-0.009003	0.11017	0.02243	-0.045013	0.009003	0.001984	-0.092163	-0.35919	-0.010071	0.002289	-0.21164	0.046844	-0.003662	0.22934	0.19745	-0.17258	-0.004425	-0.03952	0.000916	0.2803	0.001678	0.12589	-0.11215	-0.005188	-0.013123
47.765	0.009308	-0.31754	-0.30975	-0.010223	0.017242	-0.28046	0.027313	-0.005951	0.11551	0.028076	-0.047607	0.01297	0.008087	-0.13351	-0.26321	0.010986	-0.005798	-0.25635	0.12512	-0.016937	0.17227	0.17105	-0.11902	-0.001526	-0.054779	-0.000916	-0.15869	-0.000153	0.045929	-0.037537	0.006256	-0.008087
47.766	-0.002747	-0.20905	-0.15411	0.011902	-0.035095	-0.53146	0.20783	-0.00824	0.045319	0.04364	-0.009155	0.017242	0.08667	-0.17227	-0.14008	0.014343	-0.005493	-0.21744	0.13947	-0.027313	0.18906	0.10269	-0.14877	0.017548	-0.032806	0.004425	-0.14038	0.002594	0.018768	-0.086212	-0.005493	-0.006714
47.767	-0.022583	-0.12848	0.12543	0.008698	-0.096741	-0.60471	0.16495	-0.004578	-0.15411	0.032196	0.057526	0.016479	0.036163	-0.087128	0.28732	-0.002289	-0.04425	-0.18997	0.14923	-0.030518	0.16357	-0.079956	-0.2124	0.060577	-0.009918	0.002594	0.16525	-0.001373	0.14984	0.050812	-0.002747	-0.009308
47.768	-0.028229	-0.16708	0.097198	0.017853	-0.16083	-0.34409	0.11581	0	-0.21896	0.027008	0.11887	0.013275	0.042877	0.011749	0.14908	0.028992	-0.075226	-0.23178	0.049438	0.004883	0.10986	-0.24292	-0.13718	-0.037689	-0.020752	-0.010223	0.26825	-0.00061	0.29648	0.1503	-0.003052	-0.024109
47.769	-0.021057	-0.17288	0.034332	0.014648	-0.12253	-0.3302	0.060272	0.000305	-0.15396	0.033264	0.12589	0.011597	-0.007782	-0.077057	0.13458	0.017853	-0.026093	-0.30655	0.002289	0.045471	0.092621	-0.23163	-0.085297	-0.077972	-0.02533	-0.011597	0.26123	-0.001831	0.5658	0.10544	0.002594	-0.017395
47.77	-0.003357	-0.11444	-0.14771	0.007172	-0.046844	-0.19348	0.002289	-0.00061	-0.070343	0.036621	0.027466	0.016632	-0.10361	-0.032654	0.069733	0.028992	0.016937	-0.27298	-0.009003	0.011749	0.10712	-0.16556	-0.083771	-0.077667	-0.016937	-0.012054	0.30502	-0.001526	0.32471	0.12772	-0.003967	-0.011749
47.771	0.000763	-0.038147	-0.13107	-0.00885	-0.007782	-0.14938	-0.03891	-0.000763	0.010071	0.010834	-0.10315	0.011139	0.030365	0.084076	0.30258	0.006714	0.065918	-0.23193	0.024872	0.013733	0.072327	-0.15366	-0.080566	-0.055084	-0.006714	-0.00824	0.20737	-0.002747	0.091095	0.13886	0.001678	-0.010376
47.772	0.011902	-0.057068	0.089874	0.001068	0.1152	-0.1561	-0.065765	-0.014496	0.054169	0.005798	-0.10727	0.004883	0.029449	0.13321	0.63416	0.007629	0.065308	-0.24857	0.082397	0.007324	0.069733	-0.074158	-0.087585	-0.074768	0.027161	-0.009766	0.14435	-0.006561	-0.8371	0.14038	-0.002136	-0.010834
